<?xml version="1.0" standalone="no"?>
<!DOCTYPE svg PUBLIC "-//W3C//DTD SVG 20010904//EN"
 "http://www.w3.org/TR/2001/REC-SVG-20010904/DTD/svg10.dtd">
<svg version="1.0" xmlns="http://www.w3.org/2000/svg"
 width="512.000000pt" height="512.000000pt" viewBox="0 0 512.000000 512.000000"
 preserveAspectRatio="xMidYMid meet">
<metadata>
Created by potrace 1.14, written by Peter Selinger 2001-2017
</metadata>
<g transform="translate(0.000000,512.000000) scale(0.100000,-0.100000)"
fill="#000000" stroke="none">
<path d="M761 5078 c-10 -3 -34 -33 -52 -65 -18 -32 -114 -197 -212 -368 -99
-170 -191 -330 -205 -355 -14 -25 -56 -99 -95 -165 -38 -66 -80 -138 -92 -160
-13 -22 -41 -71 -63 -109 -38 -65 -40 -72 -27 -96 8 -15 68 -120 134 -235 67
-114 121 -209 121 -211 0 -1 34 -60 76 -131 42 -70 89 -150 104 -178 15 -27
89 -155 163 -284 l136 -235 -18 -30 c-10 -17 -31 -53 -46 -81 -44 -77 -43 -77
-77 -59 -16 9 -32 14 -34 12 -5 -5 -541 -934 -559 -968 -12 -24 -9 -33 47
-130 33 -58 69 -121 80 -140 11 -19 72 -124 135 -233 63 -110 122 -213 132
-230 215 -377 337 -580 352 -585 19 -7 1486 -8 1492 -1 2 2 50 85 107 184 120
211 297 518 400 695 40 69 108 188 153 265 44 77 82 142 83 144 2 2 51 5 109
5 114 1 108 4 108 -57 0 -16 34 -17 578 -17 l578 0 27 48 c15 26 39 67 54 92
15 25 45 77 67 115 22 39 99 171 171 295 71 124 139 241 150 260 12 19 27 46
35 60 7 14 66 116 130 228 l117 203 -74 127 c-40 70 -83 144 -95 165 -34 60
-50 88 -221 382 -89 154 -175 303 -190 330 -16 28 -60 104 -98 170 l-70 120
-579 0 -578 0 0 -32 c0 -37 10 -34 -133 -37 l-82 -1 -64 110 c-35 61 -74 128
-86 150 -12 22 -53 92 -90 155 -37 63 -163 282 -280 485 -117 204 -218 376
-226 384 -11 12 -124 15 -744 15 -402 1 -739 -2 -749 -6z"/>
</g>
</svg>
